<svg width="40" height="60" viewBox="0 0 40 60" fill="none" xmlns="http://www.w3.org/2000/svg">
<path d="M38.6667 20C38.6667 22.4586 37.5252 26.1152 35.6543 30.3736C33.8075 34.5772 31.3347 39.1841 28.8467 43.4731C26.3612 47.7577 23.8738 51.7023 22.0068 54.5771C21.207 55.8086 20.5217 56.8427 20 57.622C19.4783 56.8427 18.793 55.8086 17.9932 54.5771C16.1262 51.7023 13.6388 47.7577 11.1533 43.4731C8.66533 39.1841 6.19254 34.5772 4.34572 30.3736C2.47484 26.1152 1.33333 22.4586 1.33333 20C1.33333 9.69068 9.69068 1.33333 20 1.33333C30.3093 1.33333 38.6667 9.69068 38.6667 20Z" fill="white" stroke="#002D65" stroke-width="2.66667"/>
<path fill-rule="evenodd" clip-rule="evenodd" d="M22.3233 30.2277H15.2653L9.32422 16.6133H16.3856L22.3233 30.2277Z" fill="#002D65"/>
<path fill-rule="evenodd" clip-rule="evenodd" d="M22.3511 30.2278H15.293L23.7626 10.418H30.8208L22.3511 30.2278Z" fill="#4CB5B8"/>
</svg>
