<svg width="592" height="260" viewBox="0 0 592 260" fill="none" xmlns="http://www.w3.org/2000/svg">
<g opacity="0.2">
<path fill-rule="evenodd" clip-rule="evenodd" d="M470.893 239.762H391.241L324.194 87.1548H403.884L470.893 239.762Z" fill="#3066CF"/>
<path fill-rule="evenodd" clip-rule="evenodd" d="M634.391 169.299H554.738L487.691 16.6919H567.381L634.391 169.299Z" fill="#3066CF"/>
<path fill-rule="evenodd" clip-rule="evenodd" d="M471.533 239.762H391.976L487.445 16.8752H567.003L471.533 239.762Z" fill="#002D65"/>
<path fill-rule="evenodd" clip-rule="evenodd" d="M635.034 169.299H555.476L650.945 -53.5879H730.503L635.034 169.299Z" fill="#002D65"/>
<path fill-rule="evenodd" clip-rule="evenodd" d="M309.265 310.226H229.612L162.565 157.618H242.255L309.265 310.226Z" fill="#3066CF"/>
<path fill-rule="evenodd" clip-rule="evenodd" d="M146.699 380.688H67.0466L0 228.081H79.6898L146.699 380.688Z" fill="#3066CF"/>
<path fill-rule="evenodd" clip-rule="evenodd" d="M309.905 310.225H230.347L325.816 87.3384H405.374L309.905 310.225Z" fill="#002D65"/>
<path fill-rule="evenodd" clip-rule="evenodd" d="M147.341 380.688H67.783L163.252 157.801H242.81L147.341 380.688Z" fill="#002D65"/>
</g>
</svg>
