<svg width="568" height="340" viewBox="0 0 568 340" fill="none" xmlns="http://www.w3.org/2000/svg">
<g opacity="0.7">
<path fill-rule="evenodd" clip-rule="evenodd" d="M365.852 229.665H303.968L251.877 110.188H313.791L365.852 229.665Z" fill="white" fill-opacity="0.8"/>
<path fill-rule="evenodd" clip-rule="evenodd" d="M492.88 174.499H430.995L378.904 55.0215H440.818L492.88 174.499Z" fill="white" fill-opacity="0.8"/>
<path fill-rule="evenodd" clip-rule="evenodd" d="M366.351 229.666H304.54L378.713 55.166H440.525L366.351 229.666Z" fill="white"/>
<path fill-rule="evenodd" clip-rule="evenodd" d="M493.379 174.5H431.567L505.74 0H567.552L493.379 174.5Z" fill="white"/>
<path fill-rule="evenodd" clip-rule="evenodd" d="M240.277 284.831H178.392L126.302 165.354H188.215L240.277 284.831Z" fill="white" fill-opacity="0.8"/>
<path fill-rule="evenodd" clip-rule="evenodd" d="M113.975 339.999H52.0907L0 220.521H61.9136L113.975 339.999Z" fill="white" fill-opacity="0.8"/>
<path fill-rule="evenodd" clip-rule="evenodd" d="M240.774 284.832H178.963L253.136 110.332H314.947L240.774 284.832Z" fill="white"/>
<path fill-rule="evenodd" clip-rule="evenodd" d="M114.473 339.998H52.6621L126.835 165.498H188.647L114.473 339.998Z" fill="white"/>
</g>
</svg>
